HIERARCHY
ROOT Hips
{
	OFFSET 0.00 0.00 0.00
	CHANNELS 6 Xposition Yposition Zposition Xrotation Yrotation Zrotation
	JOINT Spine
	{
		OFFSET 0.00000 4.88528 0.00000
		CHANNELS 3 Xrotation Yrotation Zrotation
		JOINT Head
		{
			OFFSET 0.00000 16.49416 0.00000
			CHANNELS 3 Xrotation Yrotation Zrotation
			End Site
			{
				OFFSET 0.00000 4.52755 0.00000
			}
		}
		JOINT LeftShoulder
		{
			OFFSET 0.00000 10.66345 0.00000
			CHANNELS 3 Xrotation Yrotation Zrotation
			JOINT LeftArm
			{
				OFFSET 7.53191 0.00000 0.00000
				CHANNELS 3 Xrotation Yrotation Zrotation
				JOINT LeftForeArm
				{
					OFFSET 10.22920 0.00000 0.00000
					CHANNELS 3 Yrotation Zrotation Xrotation
					JOINT LeftHand
					{
						OFFSET 8.67349 0.00000 0.00000
						CHANNELS 3 Xrotation Yrotation Zrotation
						JOINT LeftHandThumb1
						{
							OFFSET 0.00000 0.00000 0.00000
							CHANNELS 3 Xrotation Zrotation Yrotation
							End Site
							{
								OFFSET 0.00000 0.00000 3.93700
							}
						}
						End Site
						{
							OFFSET 3.93700 0.00000 0.00000
						}
					}
				}
			}
		}
		JOINT RightShoulder
		{
			OFFSET 0.00000 10.66345 0.00000
			CHANNELS 3 Xrotation Yrotation Zrotation
			JOINT RightArm
			{
				OFFSET -7.53191 0.00000 0.00000
				CHANNELS 3 Xrotation Yrotation Zrotation
				JOINT RightForeArm
				{
					OFFSET -10.22920 0.00000 0.00000
					CHANNELS 3 Yrotation Zrotation Xrotation
					JOINT RightHand
					{
						OFFSET -8.67349 0.00000 0.00000
						CHANNELS 3 Xrotation Yrotation Zrotation
						JOINT RightHandThumb1
						{
							OFFSET 0.00000 0.00000 0.00000
							CHANNELS 3 Xrotation Zrotation Yrotation
							End Site
							{
								OFFSET 0.00000 0.00000 3.93700
							}
						}
						End Site
						{
							OFFSET -3.93700 0.00000 0.00000
						}
					}
				}
			}
		}
	}
	JOINT LeftUpLeg
	{
		OFFSET 2.67219 0.00000 0.00000
		CHANNELS 3 Xrotation Yrotation Zrotation
		JOINT LeftLeg
		{
			OFFSET 0.00000 -16.26339 0.00000
			CHANNELS 3 Xrotation Yrotation Zrotation
			JOINT LeftFoot
			{
				OFFSET 0.00000 -14.32816 0.00000
				CHANNELS 3 Xrotation Yrotation Zrotation
				JOINT LeftToeBase
				{
					OFFSET 0.00000 -1.30219 4.85985
					CHANNELS 3 Xrotation Yrotation Zrotation
					End Site
					{
						OFFSET 0.00000 0.00000 2.95275
					}
				}
			}
		}
	}
	JOINT RightUpLeg
	{
		OFFSET -2.67219 0.00000 0.00000
		CHANNELS 3 Xrotation Yrotation Zrotation
		JOINT RightLeg
		{
			OFFSET 0.00000 -16.26339 0.00000
			CHANNELS 3 Xrotation Yrotation Zrotation
			JOINT RightFoot
			{
				OFFSET 0.00000 -14.32816 0.00000
				CHANNELS 3 Xrotation Yrotation Zrotation
				JOINT RightToeBase
				{
					OFFSET 0.00000 -1.30219 4.85985
					CHANNELS 3 Xrotation Yrotation Zrotation
					End Site
					{
						OFFSET 0.00000 0.00000 2.95275
					}
				}
			}
		}
	}
}
MOTION
Frames: 16
Frame Time: 0.008333
 7.1001 32.1919 -13.3452 17.3934 8.1041 -5.8756 -12.7172 11.0664 -6.2366 -12.1520 -25.6533 15.8664 48.2826 27.3459 1.8926 -50.2007 -13.7448 -91.0723 -128.0109 -0.0000 -8.8274 -0.3744 -8.6245 -2.4949 33.1476 -0.0000 26.2537 -0.0262 -1.9851 -19.7742 -23.0162 39.8840 87.3775 116.2338 0.0000 -8.2778 -0.3614 10.2247 2.0353 32.8623 0.0000 -24.3270 -31.3460 21.1246 -1.1971 12.3207 0.0000 -0.0000 -10.9650 43.5955 4.7089 -6.2948 -0.0000 -0.0000 -8.3491 -13.0977 6.6358 28.7612 -0.0000 0.0000 -7.8459 -24.2094 4.5784 -20.7178 0.0000 -0.0000
 7.0562 32.1633 -13.4728 17.5416 7.7551 -5.6427 -12.7452 10.8275 -6.1623 -12.4692 -25.1534 15.6347 48.2335 27.2204 1.8739 -50.2076 -13.9826 -91.1692 -127.8658 -0.0000 -9.0112 -0.3397 -8.7012 -2.2445 33.1476 -0.0000 26.2537 0.2970 -2.0157 -19.6903 -22.6835 39.6838 87.2963 116.1311 0.0000 -8.2596 -0.3310 10.1549 1.8769 32.8623 0.0000 -24.3270 -31.9400 20.9852 -1.1970 12.6794 0.0000 -0.0000 -10.8845 43.7531 4.8959 -6.4102 0.0000 0.0000 -7.8711 -12.5613 6.8046 26.9464 0.0000 -0.0000 -8.8879 -24.7748 3.7690 -20.0338 0.0000 0.0000
 7.0101 32.1354 -13.5966 17.6282 7.4554 -5.3917 -12.7123 10.7198 -6.1507 -12.6667 -24.7674 15.4623 48.0466 26.9928 2.1283 -50.1676 -14.2261 -91.2575 -127.6845 -0.0000 -9.1482 -0.3045 -8.8188 -1.9857 33.1476 -0.0000 26.2537 0.6568 -2.2191 -19.5658 -22.3569 39.4229 87.2065 116.0069 0.0000 -8.3174 -0.2869 10.2735 1.6082 32.8623 0.0000 -24.3270 -32.4832 20.8087 -1.2190 13.0738 0.0000 -0.0000 -10.7727 43.8062 5.1129 -6.3191 0.0000 0.0000 -7.4349 -12.1385 6.9015 25.4852 0.0000 0.0000 -9.8345 -25.0273 3.2043 -19.7453 0.0000 0.0000
 6.9605 32.1071 -13.7205 17.6599 7.2262 -5.1267 -12.6328 10.3383 -6.1579 -12.8038 -24.2089 15.3146 47.9007 26.8701 2.2590 -50.1475 -14.4150 -91.2639 -127.5114 -0.0000 -9.4304 -0.2720 -8.7465 -1.7881 33.1476 -0.0000 26.2537 0.9777 -2.2166 -19.4291 -22.0858 39.2876 87.1316 115.8729 0.0000 -7.8833 -0.2412 10.2797 1.3513 32.8623 0.0000 -24.3270 -32.9741 20.5313 -1.2796 13.4817 0.0000 -0.0000 -10.6217 43.7458 5.0364 -6.1832 -0.0000 0.0000 -7.0305 -11.6913 6.9584 24.2751 -0.0000 -0.0000 -10.7318 -25.2757 2.8052 -18.9280 -0.0000 -0.0000
 6.9092 32.0787 -13.8458 17.6843 7.0047 -4.8537 -12.5653 9.8843 -6.1840 -12.8573 -23.5871 15.1857 47.7147 26.7801 2.4178 -50.0819 -14.6282 -91.2147 -127.3292 -0.0000 -9.5777 -0.2384 -8.8136 -1.5553 33.1476 -0.0000 26.2537 1.2497 -2.1649 -19.3689 -21.8502 39.1412 87.2401 115.6955 0.0000 -7.5542 -0.1471 10.3665 0.8174 32.8623 0.0000 -24.3270 -33.4723 20.2278 -1.3335 13.8960 -0.0000 -0.0000 -10.3546 43.4255 4.7325 -5.9649 0.0000 0.0000 -6.6717 -11.0578 6.9906 23.1219 0.0000 -0.0000 -11.5432 -25.5945 2.4253 -17.7840 0.0000 -0.0000
 6.8577 32.0508 -13.9684 17.6770 6.7850 -4.5761 -12.4831 9.4416 -6.2177 -12.8635 -22.9413 15.0499 47.5564 26.6986 2.5849 -50.0975 -14.8484 -91.1260 -127.1452 -0.0000 -9.6060 -0.2142 -8.7677 -1.4050 33.1476 -0.0000 26.2537 1.4828 -2.1261 -19.2931 -21.5873 38.9961 87.3529 115.5399 0.0000 -7.3608 -0.1017 10.3119 0.5680 32.8623 0.0000 -24.3270 -33.9218 19.8614 -1.3968 14.2540 -0.0000 0.0000 -9.9652 42.8369 4.3509 -5.6782 0.0000 0.0000 -6.3016 -10.2763 7.0011 21.9511 0.0000 0.0000 -12.3832 -25.8783 2.2337 -16.0011 -0.0000 0.0000
 6.8063 32.0229 -14.0863 17.6439 6.5585 -4.3303 -12.4200 9.0108 -6.2108 -12.7713 -22.3074 14.9124 47.3948 26.6100 2.7697 -50.1273 -15.0758 -90.9946 -126.9527 -0.0000 -9.5514 -0.2089 -8.7127 -1.3788 33.1476 -0.0000 26.2537 1.7494 -2.1512 -19.2027 -21.3748 38.8887 87.4720 115.3711 0.0000 -7.1956 -0.0583 10.2820 0.3266 32.8623 0.0000 -24.3270 -34.3063 19.4455 -1.4460 14.4906 0.0000 -0.0000 -9.6298 42.0138 4.1103 -4.8404 0.0000 -0.0000 -5.8762 -9.4919 7.0117 20.6818 -0.0000 -0.0000 -13.0576 -25.9848 1.5932 -15.1006 -0.0000 0.0000
 6.7523 31.9940 -14.2047 17.5921 6.3147 -4.1698 -12.3567 8.6222 -6.0972 -12.6500 -21.7059 14.7359 47.1866 26.4631 3.0083 -50.1355 -15.3006 -90.8227 -126.8066 -0.0000 -9.3610 -0.1989 -8.6292 -1.3252 33.1476 -0.0000 26.2537 1.9993 -2.2321 -19.1521 -21.1436 38.7954 87.5779 115.2193 0.0000 -7.0635 -0.0426 10.2339 0.2397 32.8623 0.0000 -24.3270 -34.6955 18.9004 -1.4120 14.6852 0.0000 -0.0000 -9.1206 41.4090 3.2501 -4.8862 -0.0000 0.0000 -5.4034 -8.5780 7.1044 19.3132 0.0000 -0.0000 -13.7867 -26.2701 1.3036 -14.1163 0.0000 -0.0000
 6.6967 31.9666 -14.3177 17.5538 6.0542 -4.0465 -12.3376 8.2599 -5.9699 -12.4923 -21.1153 14.6026 46.9265 26.3213 3.3056 -50.1034 -15.5394 -90.6294 -126.6835 -0.0000 -9.1779 -0.1943 -8.6150 -1.2969 33.1476 -0.0000 26.2537 2.2216 -2.3718 -19.0717 -20.9042 38.7228 87.7253 115.0418 0.0000 -7.1002 -0.0314 10.3294 0.1751 32.8623 0.0000 -24.3270 -35.0268 18.2373 -1.3814 14.7307 -0.0000 0.0000 -8.6515 41.0562 2.9458 -5.4221 -0.0000 0.0000 -4.8956 -7.6209 7.2227 17.8454 0.0000 -0.0000 -14.3411 -26.5713 0.8533 -13.4729 -0.0000 -0.0000
 6.6495 31.9358 -14.4301 17.4720 5.7290 -3.8499 -12.2913 7.9287 -5.8714 -12.2908 -20.4485 14.4237 46.8332 26.2308 3.4221 -50.2746 -15.8314 -90.3846 -126.5166 -0.0000 -8.8470 -0.1904 -8.6634 -1.2639 33.1476 -0.0000 26.2537 2.3730 -2.4165 -19.0258 -20.5875 38.6218 87.8936 114.9027 0.0000 -7.2415 -0.0662 10.5098 0.3632 32.8623 0.0000 -24.3270 -35.2673 17.6004 -1.4046 14.7359 -0.0000 0.0000 -8.2323 41.1380 3.0542 -5.3999 -0.0000 0.0000 -4.4543 -6.8154 7.2027 16.6477 0.0000 -0.0000 -14.8887 -26.6401 0.6105 -12.8408 -0.0000 0.0000
 6.6019 31.9044 -14.5369 17.3888 5.3950 -3.6672 -12.2804 7.6100 -5.7654 -12.0126 -19.8147 14.2336 46.6611 26.1349 3.5785 -50.3615 -16.1270 -90.1000 -126.4025 -0.0000 -8.5927 -0.1878 -8.6143 -1.2538 33.1476 -0.0000 26.2537 2.6203 -2.5219 -18.9589 -20.3489 38.5633 88.0668 114.8189 0.0000 -7.2493 -0.0161 10.5317 0.0879 32.8623 0.0000 -24.3270 -35.4866 16.9914 -1.4101 14.7609 0.0000 -0.0000 -7.9964 41.6581 3.2501 -5.5114 0.0000 0.0000 -4.0343 -6.1984 7.1576 15.5766 0.0000 0.0000 -15.3698 -26.5241 0.4905 -12.0823 0.0000 -0.0000
 6.5571 31.8745 -14.6489 17.2741 4.9627 -3.4664 -12.2114 7.4357 -5.6627 -11.7518 -19.2442 14.0542 46.4630 26.0124 3.7325 -50.5025 -16.4276 -89.8059 -126.2767 -0.0000 -8.2390 -0.1848 -8.6034 -1.2350 33.1476 -0.0000 26.2537 2.8001 -2.6868 -18.8791 -20.0572 38.5215 88.2105 114.7523 0.0000 -7.4187 -0.0000 10.7956 0.0001 32.8623 0.0000 -24.3270 -35.6723 16.5368 -1.3748 14.8152 0.0000 -0.0000 -7.8935 42.3698 3.5523 -5.4763 0.0000 0.0000 -3.7118 -5.5014 7.0994 14.6942 0.0000 -0.0000 -15.7879 -26.5563 0.4044 -11.6183 0.0000 0.0000
 6.5097 31.8462 -14.7569 17.1507 4.5121 -3.2636 -12.1499 7.2628 -5.5681 -11.5024 -18.6057 13.8707 46.3277 25.8864 3.8369 -50.6616 -16.6989 -89.4702 -126.1788 -0.0000 -8.0875 -0.1870 -8.6099 -1.2490 33.1476 -0.0000 26.2537 3.1291 -2.9974 -18.7252 -20.0818 38.5956 88.3744 114.6376 0.0000 -7.4342 -0.0736 10.8224 0.3922 32.8623 0.0000 -24.3270 -35.8445 16.1867 -1.3024 14.8724 -0.0000 0.0000 -7.8519 43.0541 3.9241 -5.3540 -0.0000 -0.0000 -3.3615 -5.0989 6.9551 13.8705 0.0000 0.0000 -16.1044 -26.1548 0.7320 -11.3738 0.0000 0.0000
 6.4602 31.8182 -14.8677 17.0447 4.0148 -3.0880 -12.1121 7.0946 -5.4441 -11.2159 -17.9896 13.6734 46.1817 25.8014 3.8680 -50.8538 -16.9770 -89.1128 -126.0861 -0.0000 -7.9732 -0.1843 -8.5927 -1.2332 33.1476 -0.0000 26.2537 3.3323 -3.1874 -18.6044 -19.8866 38.6253 88.5285 114.6234 0.0000 -7.4657 -0.0665 10.8310 0.3541 32.8623 0.0000 -24.3270 -36.0634 16.0140 -1.1541 14.9599 -0.0000 0.0000 -7.7894 43.6163 4.2380 -5.3411 -0.0000 -0.0000 -3.1063 -4.5242 6.8614 13.1349 -0.0000 0.0000 -16.4398 -25.9504 0.8628 -11.0552 -0.0000 -0.0000
 6.4087 31.7918 -14.9810 16.9614 3.4611 -2.9276 -12.1021 6.9558 -5.3040 -10.9494 -17.3409 13.4778 46.0348 25.7423 3.8756 -51.0436 -17.2284 -88.7552 -125.9702 -0.0000 -7.9381 -0.2020 -8.5882 -1.3522 33.1476 -0.0000 26.2537 3.5140 -3.2979 -18.4928 -19.6039 38.5776 88.6628 114.7179 0.0000 -7.3420 -0.1000 10.5563 0.5458 32.8623 0.0000 -24.3270 -36.3474 16.0162 -0.9232 15.1024 0.0000 0.0000 -7.6714 44.0613 4.3933 -5.3623 -0.0000 0.0000 -2.9276 -3.9781 6.7795 12.4979 -0.0000 0.0000 -16.7124 -25.6407 1.0310 -10.8570 0.0000 -0.0000
 6.3558 31.7661 -15.0970 16.9053 2.9073 -2.8040 -12.1250 6.8190 -5.1295 -10.6530 -16.6529 13.2787 45.9124 25.7007 3.8722 -51.2669 -17.5093 -88.4428 -125.8417 -0.0000 -7.9516 -0.1966 -8.6672 -1.3042 33.1476 -0.0000 26.2537 3.7203 -3.4743 -18.4082 -19.4266 38.6053 88.8377 114.6992 0.0000 -7.2427 -0.0920 10.6315 0.4984 32.8623 0.0000 -24.3270 -36.6952 16.0701 -0.6353 15.2749 -0.0000 -0.0000 -7.5333 44.4299 4.5946 -5.4191 -0.0000 0.0000 -2.8145 -3.4950 6.7263 11.9402 -0.0000 0.0000 -16.9229 -25.4072 1.1409 -10.7052 -0.0000 -0.0000
